# This file uses centimeters as units for non-parametric coordinates.

mtllib tetraFace1_3.mtl
g default
v -0.990422 -0.971305 1.732000
v -0.990422 -0.971305 -1.732000
v -0.448579 -1.076581 0.774340
v -0.448579 -1.076581 -0.774341
vt 0.375000 0.033494
vt 0.375000 0.466506
vt 0.375000 0.033494
vt 0.375000 0.466506
vn -0.190726 -0.981643 0.000000
vn -0.190726 -0.981643 0.000000
vn -0.190726 -0.981643 0.000000
vn -0.190726 -0.981643 0.000000
s off
g polySurface11 polySurface9
usemtl boardLayout:lambert3SG
f 1/3/1 2/4/2 4/2/3 3/1/4
