# This file uses centimeters as units for non-parametric coordinates.

mtllib tetraFace3_1.mtl
g default
v -0.918704 -0.854029 -1.829637
v 2.079396 -0.835804 -0.094599
v -0.147741 -0.288593 -1.274942
v 1.192644 -0.280444 -0.499244
vt 0.375000 0.033494
vt 0.750000 0.250000
vt 0.375000 0.033494
vt 0.750000 0.250000
vn 0.493241 0.165294 -0.854044
vn 0.493241 0.165294 -0.854044
vn 0.493241 0.165294 -0.854044
vn 0.493241 0.165294 -0.854044
s off
g pPyramid4
usemtl boardLayout:lambert3SG
f 2/2/1 1/1/2 3/3/3 4/4/4
