# This file uses centimeters as units for non-parametric coordinates.

mtllib tetraFace2_2.mtl
g default
v 0.066501 1.990284 0.091359
v -0.933470 -0.838060 1.823359
v 0.307805 0.988023 0.490150
v -0.139260 -0.276469 1.264489
vt 0.375000 0.466506
vt 0.750000 0.250000
vt 0.375000 0.466506
vt 0.750000 0.250000
vn 0.308865 0.414894 0.855842
vn 0.308865 0.414894 0.855842
vn 0.308865 0.414894 0.855842
vn 0.308865 0.414894 0.855842
s off
g polySurface13 polySurface9
usemtl boardLayout:lambert3SG
f 1/3/1 2/4/2 4/2/3 3/1/4
