# This file uses centimeters as units for non-parametric coordinates.

mtllib tetraFace2_3.mtl
g default
v 2.066442 -0.838060 0.091359
v 0.066501 1.990284 0.091359
v 1.201936 -0.276470 0.490150
v 0.307805 0.988023 0.490150
vt 0.375000 0.033494
vt 0.375000 0.466506
vt 0.375000 0.033494
vt 0.375000 0.466506
vn 0.589902 0.417124 0.691393
vn 0.589902 0.417124 0.691393
vn 0.589902 0.417124 0.691393
vn 0.589902 0.417124 0.691393
s off
g polySurface13 polySurface9
usemtl boardLayout:lambert3SG
f 1/3/1 2/4/2 4/2/3 3/1/4
