# This file uses centimeters as units for non-parametric coordinates.

mtllib tetraFace1_1.mtl
g default
v -0.990422 -0.971305 1.732000
v 2.009490 -0.971305 -0.000000
v -0.448579 -1.076581 0.774340
v 0.892616 -1.076581 -0.000000
vt 0.375000 0.033494
vt 0.750000 0.250000
vt 0.375000 0.033494
vt 0.750000 0.250000
vn 0.092628 -0.982690 0.160437
vn 0.092628 -0.982690 0.160437
vn 0.092628 -0.982690 0.160437
vn 0.092628 -0.982690 0.160437
s off
g polySurface11 polySurface9
usemtl boardLayout:lambert3SG
f 2/4/1 1/3/2 3/1/3 4/2/4
