# This file uses centimeters as units for non-parametric coordinates.

mtllib tetraFace4_3.mtl
g default
v -1.100973 -0.838060 1.734961
v -0.101002 1.990284 0.002960
v -1.014083 -0.276470 0.786881
v -0.567017 0.988023 0.012541
vt 0.375000 0.033494
vt 0.375000 0.466506
vt 0.375000 0.033494
vt 0.375000 0.466506
vn -0.893714 0.417124 0.165174
vn -0.893714 0.417124 0.165174
vn -0.893714 0.417124 0.165174
vn -0.893714 0.417124 0.165174
s off
g polySurface10 polySurface9
usemtl boardLayout:lambert3SG
f 1/3/1 2/4/2 4/2/3 3/1/4
